# xmcd
#
# Track frame offsets:
#	150
#	6697
#	23260
#	48630
#	59162
#	83560
#	122965
#	139837
#	154205
#	160425
#
# Disc length: 2464 seconds
#
# Revision: 1
# Processed by: cddbd v1.5.1PL0 Copyright (c) Steve Scherf et al.
# Submitted via: CDex 1.50Beta5
#
DISCID=89099e0a
DTITLE=笠原弘子 - 「ロミオの青い空」(ドラマ&ソング・ブック)VOL.1
DYEAR=1995
DGENRE=
TTITLE0=笠原弘子/空へ…
TTITLE1=折笠愛/屋根の上のロミオ*ドラマ・1
TTITLE2=藤田淑子/君がいるから
TTITLE3=折笠愛/アンジェレッタの手紙*ドラマ・2
TTITLE4=川村万梨阿/あなたの話をきかせて
TTITLE5=折笠愛/対決!黒い兄弟VS狼団*ドラマ・3
TTITLE6=黒い兄弟/英雄のマーチ
TTITLE7=折笠愛/明日へ…*ドラマ・4
TTITLE8=笠原弘子/Si Si Ciao
TTITLE9=折笠愛/Only Truth
EXTD=
EXTT0=
EXTT1=
EXTT2=
EXTT3=
EXTT4=
EXTT5=
EXTT6=
EXTT7=
EXTT8=
EXTT9=
PLAYORDER=
